<svg xmlns="http://www.w3.org/2000/svg" viewBox="0 0 289.59 369.45"><defs><style>.cls-1{fill:#535354;}.cls-2{fill:#1a1b23;}.cls-3{fill:#333;}.cls-4{fill:#6e6e7a;}.cls-5{fill:#07070a;}.cls-6{fill:#f5f5ff;}.cls-7{fill:#fff;}.cls-8{fill:#53535b;}.cls-9{fill:#4a4a51;}.cls-10{fill:#191919;}</style></defs><g id="图层_2" data-name="图层 2"><g id="图层_8" data-name="图层 8"><polygon class="cls-1" points="7.51 131.55 1 131.55 1 200.4 7.51 207.74 19.98 207.74 19.98 131.55 7.51 131.55"/><path class="cls-2" d="M21,208.74H7.07l-7.07-8V130.55H21Zm-13-2H19V132.55H2V200Z"/><polygon class="cls-3" points="11.89 277.19 6.39 268.53 3.85 212.22 11.89 202.39 20.98 202.39 20.98 281.31 11.89 277.19"/><path class="cls-2" d="M22,282.86,11.21,278,5.4,268.84v-.27L2.84,211.88l8.58-10.49H22Zm-9.41-6.46L20,279.76V203.39H12.36l-7.49,9.16,2.51,55.67Z"/><polygon class="cls-4" points="20.66 190.37 3.85 195.78 3.85 212.59 12.26 217.03 12.26 279.36 12.39 282.79 16.77 289.84 20.66 190.37"/><path class="cls-2" d="M17.64,293.14,11.4,283.09l-.14-3.69V217.64l-8.41-4.45V195.05L21.72,189Zm-4.26-10.66,2.52,4.06,3.71-94.78L4.85,196.51V212l8.41,4.45v62.93Z"/><polygon class="cls-4" points="21.66 147.37 3.85 147.37 3.85 173.78 20.66 180.4 21.66 147.37"/><path class="cls-2" d="M21.62,181.85,2.85,174.46V146.37H22.69ZM4.85,173.1,19.71,179l.92-30.58H4.85Z"/><rect class="cls-2" x="8.42" y="147.37" width="2" height="28.29"/><path class="cls-4" d="M17,141.38H3.85V127.13l5.57-12.92s2.85-3.8,6.55,0S17,141.38,17,141.38Z"/><path class="cls-2" d="M17.92,142.38H2.85V126.93l5.77-13.32a5.54,5.54,0,0,1,3.73-2.08,5.53,5.53,0,0,1,4.34,2c3.92,4,1.61,25.54,1.33,28Zm-13.07-2H16.13c.95-8.93,1.5-23-.87-25.47a3.68,3.68,0,0,0-2.77-1.38,3.44,3.44,0,0,0-2.21,1.21l-5.43,12.6Z"/><polygon class="cls-1" points="282.08 131.55 288.59 131.55 288.59 200.4 282.08 207.74 269.61 207.74 269.61 131.55 282.08 131.55"/><path class="cls-2" d="M282.53,208.74H268.61V130.55h21v70.23Zm-11.92-2h11l6-6.72V132.55h-17Z"/><polygon class="cls-3" points="277.7 277.19 283.2 268.53 285.74 212.22 277.7 202.39 268.61 202.39 268.61 281.31 277.7 277.19"/><path class="cls-2" d="M267.61,282.86V201.39h10.57l8.57,10.49v.38l-2.55,56.58-5.8,9.13Zm2-79.47v76.37L277,276.4l5.19-8.18,2.51-55.67-7.49-9.16Z"/><polygon class="cls-4" points="268.93 190.37 285.74 195.78 285.74 212.59 277.33 217.03 277.33 279.36 277.2 282.79 272.82 289.84 268.93 190.37"/><path class="cls-2" d="M272,293.14,267.87,189l18.87,6.07v18.14l-8.41,4.45v61.72l-.14,3.73Zm-2-101.38,3.71,94.78,2.52-4.06.12-3.16V216.43l8.41-4.45V196.51Z"/><polygon class="cls-4" points="267.93 147.37 285.74 147.37 285.74 173.78 268.93 180.4 267.93 147.37"/><path class="cls-2" d="M268,181.85l-1.07-35.48h19.84v28.09Zm1-33.48.92,30.58,14.86-5.85V148.37Z"/><rect class="cls-2" x="279.17" y="147.37" width="2" height="28.29"/><path class="cls-4" d="M272.56,141.38h13.18V127.13l-5.57-12.92s-2.85-3.8-6.55,0S272.56,141.38,272.56,141.38Z"/><path class="cls-2" d="M286.74,142.38H271.67l-.1-.88c-.28-2.44-2.59-24,1.33-28a5,5,0,0,1,8.07.09l.12.21,5.65,13.11Zm-13.28-2h11.28v-13l-5.43-12.6a3.41,3.41,0,0,0-2.21-1.21,3.62,3.62,0,0,0-2.77,1.38C272,117.35,272.51,131.45,273.46,140.38Z"/><path class="cls-5" d="M268.43,292.74l-87.21,66-19.62,2.17a144.17,144.17,0,0,1-33.09-.17l-16.64-2-90.21-66V147.37H268.43Z"/><path class="cls-2" d="M145.77,367.78a150.11,150.11,0,0,1-18-1.08l-18.2-2.2L15.66,295.78V141.37H274.43V295.72l-90.9,68.8-21.27,2.35A148.85,148.85,0,0,1,145.77,367.78ZM114.14,353l15.09,1.82a138.39,138.39,0,0,0,31.71.15l18-2,83.51-63.2V153.37H27.66V289.69Z"/><rect class="cls-6" x="68.93" y="130.43" width="13.32" height="66.91" transform="translate(-65.4 51.22) rotate(-26.61)"/><path class="cls-4" d="M21.66,147.37C21.66,79.23,51.48,11,145.05,11S268.43,79.23,268.43,147.37"/><path class="cls-2" d="M274.43,147.37h-12c0-25.64-4.41-62.1-25.41-90.15C217,30.52,186.09,17,145.05,17s-72,13.53-92,40.23c-21,28.05-25.41,64.51-25.41,90.15h-12c0-39.39,9.62-73.05,27.8-97.34C65.84,20.14,100,5,145.05,5s79.2,15.15,101.58,45C264.82,74.32,274.43,108,274.43,147.37Z"/><rect class="cls-2" x="22.11" y="134.36" width="246.32" height="2"/><polygon class="cls-4" points="163.44 134.09 152.25 143.09 137.85 143.09 126.65 134.09 126.65 8 135.48 3 154.61 3 163.44 8 163.44 134.09"/><path class="cls-2" d="M153.3,146.09H136.79l-13.14-10.56V6.25l11-6.25H155.4l11,6.25V135.53Zm-14.4-6h12.29l9.25-7.44V9.75L153.82,6H136.27l-6.62,3.75v122.9Z"/><rect class="cls-4" x="137.85" y="4" width="14.4" height="123.13"/><path class="cls-2" d="M153.25,128.13h-16.4V3h16.4Zm-14.4-2h12.4V5h-12.4Z"/><polygon class="cls-7" points="129.52 356.73 111.86 362.73 21.66 292.73 21.66 172.32 126.64 183.84 129.52 356.73"/><path class="cls-2" d="M110.74,369.45,15.66,295.67v-130l116.89,12.83,3,182.55ZM27.66,289.8,113,356l10.46-3.55-2.72-163.23L27.66,179Z"/><polygon class="cls-7" points="160.57 356.73 178.23 362.73 268.43 292.73 268.43 172.32 163.45 183.84 160.57 356.73"/><path class="cls-2" d="M179.36,369.45,154.5,361l3-182.55,116.89-12.83v130Zm-12.72-17L177.1,356l85.33-66.21V179l-93.07,10.21Z"/><polygon class="cls-8" points="21.66 188.86 21.66 292.73 111.86 362.73 129.52 356.73 126.64 183.84 21.66 172.32 21.66 188.86"/><path class="cls-2" d="M111.68,363.85l-.43-.33-90.59-70.3v-122l107,11.74,2.91,174.5Zm-89-71.61,89.39,69.37L128.51,356l-2.85-171.28-103-11.3Z"/><path class="cls-4" d="M111.86,362.73s.64-119.53-25.37-146.81c-23.56-24.7-64.83-27.06-64.83-27.06V172.32l105,11.52,2.88,172.89Z"/><path class="cls-2" d="M110.86,364.13v-1.4c0-1.19.34-119.44-25.09-146.12-23-24.14-63.76-26.73-64.16-26.76l-.95,0V171.21l107,11.74,2.91,174.5Zm-88.2-176.2c6.34.55,43,4.68,64.55,27.3,11,11.48,18.59,39.82,22.72,84.24,2.68,28.91,2.92,55.56,2.93,61.87L128.51,356l-2.85-171.28-103-11.3Z"/><path class="cls-9" d="M33.05,301.57l15.7-67.08s59,13.09,59,125.08Z"/><path class="cls-2" d="M108.79,361.62,31.93,302l.15-.62L48,233.3l1,.22c.61.13,15.25,3.54,30.06,20.87,24.6,28.78,29.76,73.08,29.76,105.18ZM34.17,301.18l72.62,56.35c-.22-31.52-5.57-74-29.17-101.72-12.26-14.4-24.66-19-28.13-20.07Z"/><path class="cls-10" d="M111.36,362.34l-3.57-2.77c0-112-59-125.08-59-125.08L20.66,190.37l.5-1.52S62.43,191.21,86,215.92C111.13,242.29,111.37,354.86,111.36,362.34Z"/><path class="cls-2" d="M112.36,364.38l-5.57-4.32v-.49c0-31.7-5.06-75.43-29.17-103.75-14.37-16.9-28.94-20.32-29.08-20.35l-.41-.09-.22-.35L19.57,190.51l.88-2.7.77.05c.42,0,41.94,2.66,65.5,27.37,10.65,11.18,18.18,38.39,22.38,80.89,3.21,32.45,3.27,62.86,3.26,66.23Zm-3.57-5.3,1.57,1.22c-.1-16.37-1.64-119.09-25.09-143.69C64,194.3,27.59,190.39,21.87,189.91l-.11.33,27.62,43.38c2.56.67,16,4.83,29.65,20.77S108.7,301.24,108.79,359.08Z"/><polygon class="cls-8" points="267.93 188.86 267.93 292.73 177.73 362.73 160.07 356.73 162.95 183.84 267.93 172.32 267.93 188.86"/><path class="cls-2" d="M177.92,363.85l-18.86-6.4v-.73L162,183l107-11.74v122l-.39.3ZM161.08,356l16.46,5.59,89.39-69.37V173.44l-103,11.3Z"/><path class="cls-4" d="M177.73,362.73s-.64-119.53,25.37-146.81c23.56-24.7,64.83-27.06,64.83-27.06V172.32L163,183.84l-2.88,172.89Z"/><path class="cls-2" d="M178.74,364.13l-19.68-6.68v-.73L162,183l107-11.74V189.8l-.94,0c-.41,0-41.16,2.64-64.17,26.76-25.43,26.68-25.1,144.93-25.09,146.12ZM161.08,356l15.65,5.32c0-6.31.25-33,2.94-61.87,4.12-44.42,11.76-72.76,22.71-84.24,21.57-22.62,58.22-26.75,64.55-27.3V173.44l-103,11.3Z"/><path class="cls-9" d="M256.54,301.57l-15.7-67.08s-59,13.09-59,125.08Z"/><path class="cls-2" d="M180.8,361.62v-2.05c0-32.1,5.16-76.4,29.76-105.18,14.81-17.33,29.45-20.74,30.07-20.87l1-.22L257.66,302Zm59.31-125.88c-3.48,1.06-15.88,5.67-28.14,20.07-13.15,15.45-28.79,45.6-29.16,101.72l72.61-56.35Z"/><path class="cls-10" d="M178.23,362.34l3.57-2.77c0-112,59-125.08,59-125.08l28.09-44.12-.5-1.52s-41.27,2.36-64.83,27.07C178.46,242.29,178.22,354.86,178.23,362.34Z"/><path class="cls-2" d="M177.23,364.38v-2c0-3.36.05-33.77,3.26-66.22,4.2-42.5,11.73-69.71,22.39-80.89,23.56-24.71,65.08-27.35,65.49-27.37l.77-.05.89,2.7-28.57,44.87-.4.09c-.15,0-14.71,3.45-29.09,20.35-13.31,15.63-29.17,46.32-29.17,103.75v.49Zm90.49-174.47c-5.71.48-42.13,4.4-63.4,26.7-23.45,24.6-25,127.31-25.09,143.69l1.57-1.22c0-32.06,5.29-76.06,29.76-104.69,13.62-15.94,27.1-20.1,29.65-20.77l27.62-43.38Z"/></g></g></svg>